<svg xmlns="http://www.w3.org/2000/svg" width="28" height="28" viewBox="0 0 28 28">
  <g id="Group_19166" data-name="Group 19166" transform="translate(-813 -6969)">
    <rect id="Rectangle_10313" data-name="Rectangle 10313" width="28" height="28" transform="translate(813 6969)" fill="#0a1523"/>
    <g id="icon_outlined_brand-and-logos_facebook" data-name="icon/outlined/brand-and-logos/facebook" transform="translate(815 6971)">
      <rect id="icon_outlined_brand-and-logos_facebook_clip_mask_" data-name="icon/outlined/brand-and-logos/facebook (clip mask)" width="24" height="24" fill="none"/>
      <g id="search" transform="translate(5 5)">
        <path id="Path_879" data-name="Path 879" d="M3.034,142.843l-.476,1.779-1.741.037a6.856,6.856,0,0,1-.05-6.391h0l1.55.284L3,140.093a4.085,4.085,0,0,0,.038,2.75Z" transform="translate(0 -134.572)" fill="#fff"/>
        <path id="Path_880" data-name="Path 880" d="M268.2,208.176a6.841,6.841,0,0,1-2.44,6.616h0l-1.953-.1-.276-1.725a4.079,4.079,0,0,0,1.755-2.083h-3.66v-2.708H268.2Z" transform="translate(-254.634 -202.611)" fill="#fff"/>
        <path id="Path_881" data-name="Path 881" d="M40.822,313.318h0a6.846,6.846,0,0,1-10.313-2.094l2.218-1.816a4.07,4.07,0,0,0,5.866,2.084Z" transform="translate(-29.693 -301.137)" fill="#fff"/>
        <path id="Path_882" data-name="Path 882" d="M39.071,1.576,36.854,3.391a4.07,4.07,0,0,0-6,2.131L28.624,3.7h0A6.845,6.845,0,0,1,39.071,1.576Z" transform="translate(-27.859)" fill="#fff"/>
      </g>
    </g>
  </g>
</svg>