<svg xmlns="http://www.w3.org/2000/svg" width="24" height="24" viewBox="0 0 24 24"><defs><style>.a{fill:#0a1523;}.b{fill:#fff;}</style></defs><g transform="translate(-255 -9646)"><rect class="a" width="24" height="24" transform="translate(255 9646)"/><g transform="translate(3.974 1.209)"><path class="b" d="M1.449-.668A1.336,1.336,0,0,0,0,.663,1.326,1.326,0,0,0,1.415,1.994h.017A1.335,1.335,0,1,0,1.449-.668Zm0,0" transform="translate(257.026 9651.459)"/><path class="b" d="M8.109,198.312H10.67v7.7H8.109Zm0,0" transform="translate(249.068 9456.193)"/><path class="b" d="M226.084,188.625a3.208,3.208,0,0,0-2.308,1.3v-1.117h-2.561v7.7h2.561v-4.3a1.755,1.755,0,0,1,.084-.625,1.4,1.4,0,0,1,1.314-.936c.927,0,1.3.707,1.3,1.742v4.122h2.561v-4.418C229.032,189.726,227.769,188.625,226.084,188.625Zm0,0" transform="translate(39.941 9465.699)"/></g></g></svg>