<svg xmlns="http://www.w3.org/2000/svg" width="263.285" height="72.632" viewBox="0 0 263.285 72.632"><defs><style>.a{fill:#fff;}.b{fill:#0a1523;}.c{fill:#ec4238;}</style></defs><g transform="translate(-151.421 -380.104)"><path class="a" d="M318.775,411.264v.312a13.757,13.757,0,0,0-3.16,2.848,16.059,16.059,0,0,0-1.869,3.739l-9.391,24.967h-2.67l-10.948-27.815c-.667-1.647-1.023-2.315-3.471-3.783v-.267H301.73v.312c-3.293,1.958-3.6,1.869-2.225,5.919L306,434.94l6.23-16.911a8.682,8.682,0,0,0,.623-2.581c0-1.469-.935-2.448-3.6-3.872v-.312Z" transform="translate(-65.781 -15.089)"/><path class="a" d="M361.707,444.536a12.176,12.176,0,0,1-2.314,5.074c-1.29,1.824-3.872,3.07-7.121,3.07a11.059,11.059,0,0,1-7.921-3.026,10.926,10.926,0,0,1-3.16-8.188,11.151,11.151,0,0,1,3.071-8.145,10.694,10.694,0,0,1,7.966-3.16c3.382,0,6.142,1.38,7.432,3.2a8.645,8.645,0,0,1,1.958,5.163v.534H347.377v.623c0,2.8.757,4.94,2.314,6.32a8,8,0,0,0,5.518,2.047,6.425,6.425,0,0,0,6.186-3.694Zm-14.286-6.543,7.967-.089a11.794,11.794,0,0,0-.846-4.05,3.378,3.378,0,0,0-3.07-2.492C349.157,431.363,347.733,433.855,347.421,437.993Z" transform="translate(-91.893 -24.239)"/><path class="a" d="M384.073,451.84a5.271,5.271,0,0,0,2.136-1.691,7.152,7.152,0,0,0,.489-3.2V437.51a9.148,9.148,0,0,0-.489-3.56,4.885,4.885,0,0,0-2.136-1.958v-.312a40.616,40.616,0,0,0,9.3-1.691l-.089,4.45h.089a6.477,6.477,0,0,1,6.1-4.361,4.813,4.813,0,0,1,2.091.489l-.89,7.165h-.312c-1.869-2.448-3.427-3.649-4.717-3.649a2.305,2.305,0,0,0-2.136,1.646v11.215a5.86,5.86,0,0,0,.579,3.2,6.986,6.986,0,0,0,2.848,1.691v.312H384.073Z" transform="translate(-112.658 -24.156)"/><path class="a" d="M421.775,443.107a5.27,5.27,0,0,0,2.136-1.691,7.151,7.151,0,0,0,.489-3.2v-9.035c0-2.848-.489-4.183-1.023-4.717a9.482,9.482,0,0,0-1.6-1.157v-.311a43.484,43.484,0,0,0,9.435-1.736v16.956a7.326,7.326,0,0,0,.445,3.2,5.481,5.481,0,0,0,2.181,1.691v.312H421.775Zm5.519-31.152a3.387,3.387,0,1,1,0,6.764,3.586,3.586,0,0,1-3.6-3.427A3.542,3.542,0,0,1,427.294,411.955Z" transform="translate(-130.914 -15.423)"/><path class="a" d="M475.417,443.121c-4.9,0-8.812-1.469-11.749-4.451-2.893-2.982-4.361-6.987-4.361-12.061s1.468-9.079,4.361-12.016c2.937-2.982,6.853-4.45,11.749-4.45s8.812,1.468,11.749,4.45q4.406,4.406,4.406,12.016c0,5.074-1.468,9.079-4.406,12.061S480.312,443.121,475.417,443.121Zm8.144-13.04c0-6.5-2.314-18.513-9.213-18.513a5.894,5.894,0,0,0-5.162,3.16,15.736,15.736,0,0,0-1.914,8.367,36.72,36.72,0,0,0,2.047,11.749c1.38,3.961,4.005,6.854,7.21,6.854C480.669,441.7,483.561,437.335,483.561,430.081Z" transform="translate(-149.088 -14.546)"/><path class="a" d="M549.948,450.149a5.485,5.485,0,0,0,2.181,1.691v.312h-12.06v-.312a5.373,5.373,0,0,0,2.225-1.691,7.427,7.427,0,0,0,.489-3.2v-9.213c0-2.848-1.335-4.228-3.249-4.228q-2.2,0-4.272,2.8v10.637a7.337,7.337,0,0,0,.445,3.2,5.269,5.269,0,0,0,2.136,1.691v.312H525.827v-.312a5.268,5.268,0,0,0,2.136-1.691,7.152,7.152,0,0,0,.489-3.2v-9.079a10.106,10.106,0,0,0-.489-3.872,5.21,5.21,0,0,0-2.136-2v-.312a41.486,41.486,0,0,0,9.3-1.691v4.9c2.092-3.2,4.718-4.806,7.789-4.806,2.625,0,6.587,1.335,6.587,6.676v10.192A7.328,7.328,0,0,0,549.948,450.149Z" transform="translate(-181.299 -24.156)"/><path class="a" d="M582.349,449.653c-2.091-2-3.115-4.806-3.115-8.322a10.909,10.909,0,0,1,3.07-8.189,10.243,10.243,0,0,1,7.433-2.982,9.921,9.921,0,0,1,8.633,4.806l-4.495,3.472-.267-.134a13.306,13.306,0,0,0-1.29-4.717c-.712-1.469-1.647-2.225-2.849-2.225-2.27,0-4.05,2.893-4.05,7.387,0,5.7,2.848,9.39,7.254,9.39,2.715,0,4.807-1.379,6.186-4.139l.356.178a11.533,11.533,0,0,1-2.892,6.008,8.246,8.246,0,0,1-6.364,2.492A10.62,10.62,0,0,1,582.349,449.653Z" transform="translate(-207.161 -24.239)"/><path class="a" d="M642.631,444.536a12.177,12.177,0,0,1-2.314,5.074c-1.29,1.824-3.872,3.07-7.121,3.07a11.058,11.058,0,0,1-7.921-3.026,10.926,10.926,0,0,1-3.16-8.188,11.152,11.152,0,0,1,3.07-8.145,10.7,10.7,0,0,1,7.967-3.16c3.382,0,6.142,1.38,7.432,3.2a8.646,8.646,0,0,1,1.958,5.163v.534H628.3v.623c0,2.8.756,4.94,2.314,6.32a8.005,8.005,0,0,0,5.518,2.047,6.425,6.425,0,0,0,6.186-3.694Zm-14.286-6.543,7.966-.089a11.807,11.807,0,0,0-.846-4.05,3.379,3.379,0,0,0-3.071-2.492C630.081,431.363,628.657,433.855,628.346,437.993Z" transform="translate(-227.925 -24.239)"/><g transform="translate(151.421 380.148)"><path class="a" d="M203.357,413.928c-.564,8.658-4.473,16.223-11.645,22.511a48.473,48.473,0,0,1-9.857,6.632A48.46,48.46,0,0,1,172,436.439c-7.777-6.817-11.72-15.135-11.72-24.721V389.045h43.154v-8.856h-52.01v31.529c0,30.044,30.433,41.058,30.433,41.058s28.929-10.475,30.372-38.849Z" transform="translate(-151.421 -380.189)"/><path class="b" d="M252.261,397.36" transform="translate(-200.251 -388.504)"/></g><path class="c" d="M261.118,408.354l-4.428-6.482-4.428,6.482V380.1h8.856Z" transform="translate(-48.83)"/></g></svg>